<svg t="1628233999112" class="icon" viewBox="0 0 1024 1024" version="1.1" xmlns="http://www.w3.org/2000/svg" p-id="3784" width="144" height="144"><path d="M512 512m-512 0a512 512 0 1 0 1024 0 512 512 0 1 0-1024 0Z" fill="#6AE5E1" p-id="3785"></path><path d="M688 240c-12.8-12.8-44-24-68-24H296c-35.2 0-64 28.8-64 64v464c0 35.2 28.8 64 64 64h464c35.2 0 64-28.8 64-64V512 412c0-20-11.2-46.4-24-60l-56-56-56-56z" fill="#FBD000" p-id="3786"></path><path d="M624 248v168c0 26.4-21.6 48-48 48H360c-26.4 0-48-21.6-48-48V248" fill="#F4B10B" p-id="3787"></path><path d="M624 216v168c0 26.4-21.6 48-48 48H360c-26.4 0-48-21.6-48-48V216" fill="#EAEAEA" p-id="3788"></path><path d="M760 736H296c-35.2 0-64-28.8-64-64v72c0 35.2 28.8 64 64 64h464c35.2 0 64-28.8 64-64v-72c0 35.2-28.8 64-64 64z" fill="#F4B10B" p-id="3789"></path><path d="M568 376c0 8.8-7.2 16-16 16h-56c-8.8 0-16-7.2-16-16V272c0-8.8 7.2-16 16-16h56c8.8 0 16 7.2 16 16v104z" fill="#FBD000" p-id="3790"></path><path d="M744 808V584c0-35.2-28.8-64-64-64H376c-35.2 0-64 28.8-64 64v224" fill="#FF4848" p-id="3791"></path><path d="M672 624H592c-4.8 0-8-3.2-8-8s3.2-8 8-8h80c4.8 0 8 3.2 8 8s-3.2 8-8 8zM536 624H392c-4.8 0-8-3.2-8-8s3.2-8 8-8h144c4.8 0 8 3.2 8 8s-3.2 8-8 8zM672 680H520c-4.8 0-8-3.2-8-8s3.2-8 8-8h152c4.8 0 8 3.2 8 8s-3.2 8-8 8zM472 680H392c-4.8 0-8-3.2-8-8s3.2-8 8-8h80c4.8 0 8 3.2 8 8s-3.2 8-8 8zM624 736H392c-4.8 0-8-3.2-8-8s3.2-8 8-8h232c4.8 0 8 3.2 8 8s-3.2 8-8 8z" fill="#663210" p-id="3792"></path><path d="M576 400H360c-26.4 0-48-21.6-48-48v32c0 26.4 21.6 48 48 48h216c26.4 0 48-21.6 48-48v-32c0 26.4-21.6 48-48 48z" fill="#D4D6D6" p-id="3793"></path><path d="M760 816H296c-40 0-72-32-72-72V280c0-40 32-72 72-72h324c26.4 0 59.2 11.2 73.6 26.4l112 112c14.4 14.4 26.4 44 26.4 65.6V744c0 40-32 72-72 72zM296 224c-31.2 0-56 24.8-56 56v464c0 31.2 24.8 56 56 56h464c31.2 0 56-24.8 56-56V412c0-17.6-9.6-42.4-21.6-54.4l-112-112c-12-12-40-21.6-62.4-21.6H296z" fill="#663210" p-id="3794"></path><path d="M744 816c-4.8 0-8-3.2-8-8V584c0-31.2-24.8-56-56-56H376c-31.2 0-56 24.8-56 56v224c0 4.8-3.2 8-8 8s-8-3.2-8-8V584c0-40 32-72 72-72h304c40 0 72 32 72 72v224c0 4.8-3.2 8-8 8z" fill="#663210" p-id="3795"></path><path d="M552 256h-56c-8.8 0-16 7.2-16 16v32c0-8.8 7.2-16 16-16h56c8.8 0 16 7.2 16 16v-32c0-8.8-7.2-16-16-16z" fill="#F4B10B" p-id="3796"></path><path d="M576 440H360c-31.2 0-56-24.8-56-56V216c0-4.8 3.2-8 8-8s8 3.2 8 8v168c0 22.4 17.6 40 40 40h216c22.4 0 40-17.6 40-40V216c0-4.8 3.2-8 8-8s8 3.2 8 8v168c0 31.2-24.8 56-56 56z" fill="#663210" p-id="3797"></path><path d="M552 400h-56c-13.6 0-24-10.4-24-24V272c0-13.6 10.4-24 24-24h56c13.6 0 24 10.4 24 24v104c0 13.6-10.4 24-24 24z m-56-136c-4.8 0-8 3.2-8 8v104c0 4.8 3.2 8 8 8h56c4.8 0 8-3.2 8-8V272c0-4.8-3.2-8-8-8h-56z" fill="#663210" p-id="3798"></path><path d="M864 312c-17.6 0-32-14.4-32-32s14.4-32 32-32 32 14.4 32 32-14.4 32-32 32z m0-48c-8.8 0-16 7.2-16 16s7.2 16 16 16 16-7.2 16-16-7.2-16-16-16zM584 928c-17.6 0-32-14.4-32-32s14.4-32 32-32 32 14.4 32 32-14.4 32-32 32z m0-48c-8.8 0-16 7.2-16 16s7.2 16 16 16 16-7.2 16-16-7.2-16-16-16zM144 672c-17.6 0-32-14.4-32-32s14.4-32 32-32 32 14.4 32 32-14.4 32-32 32z m0-48c-8.8 0-16 7.2-16 16s7.2 16 16 16 16-7.2 16-16-7.2-16-16-16zM440 160c-17.6 0-32-14.4-32-32s14.4-32 32-32 32 14.4 32 32-14.4 32-32 32z m0-48c-8.8 0-16 7.2-16 16s7.2 16 16 16 16-7.2 16-16-7.2-16-16-16zM170.4 399.2c0-3.2-3.2-6.4-8-7.2l-15.2-2.4c-4-0.8-8.8-4.8-8.8-8.8l-2.4-15.2c-0.8-4-4-8-7.2-8s-6.4 3.2-7.2 8l-1.6 15.2c-0.8 4-4.8 8.8-8.8 8.8L96 392c-4 0.8-8 4-8 7.2s3.2 6.4 8 7.2l15.2 2.4c4 0.8 8.8 4.8 8.8 8.8l2.4 15.2c0.8 4 4 8 7.2 8s6.4-3.2 6.4-8l2.4-16.8c0.8-4 4.8-8 8.8-8.8l14.4-0.8c4.8-1.6 8.8-4 8.8-7.2zM954.4 584.8c0-3.2-3.2-6.4-8-7.2l-15.2-2.4c-4-0.8-8.8-4.8-8.8-8.8L920 552c-0.8-4-4-8-7.2-8s-6.4 3.2-7.2 8l-2.4 15.2c-0.8 4-4.8 8.8-8.8 8.8l-15.2 2.4c-4 0.8-8 4-8 7.2s3.2 6.4 8 7.2l15.2 2.4c4 0.8 8.8 4.8 8.8 8.8l2.4 15.2c0.8 4 4 8 7.2 8s6.4-3.2 6.4-8l2.4-16.8c0.8-4 4.8-8 8.8-8.8l14.4-0.8c5.6-1.6 9.6-4.8 9.6-8zM792 696c-4.8 0-8-3.2-8-8V448c0-39.2 0-52.8-21.6-74.4l-104-104c-3.2-3.2-3.2-8 0-11.2 3.2-3.2 8-3.2 11.2 0l104 104c26.4 26.4 26.4 44.8 26.4 85.6v240c0 4.8-3.2 8-8 8z" fill="#FFFFFF" p-id="3799"></path><path d="M688 560h-48c-4.8 0-8-3.2-8-8s3.2-8 8-8h48c4.8 0 8 3.2 8 8s-3.2 8-8 8zM576 560H376c-4.8 0-8-3.2-8-8s3.2-8 8-8h200c4.8 0 8 3.2 8 8s-3.2 8-8 8z" fill="#FFFFFF" opacity=".5" p-id="3800"></path></svg>