<svg t="1628125079622" class="icon" viewBox="0 0 1024 1024" version="1.1" xmlns="http://www.w3.org/2000/svg" p-id="1960" width="144" height="144">
<path d="M827.3 939.2H196.7c-63.4 0-114.9-49-114.9-109.2V194c0-60.2 51.5-109.2 114.9-109.2h630.5c63.4 0 114.9 49 114.9 109.2v636c0 60.2-51.5 109.2-114.8 109.2zM196.7 159.6c-22.1 0-40.1 15.4-40.1 34.4v636c0 19 18 34.4 40.1 34.4h630.5c22.1 0 40.1-15.4 40.1-34.4V194c0-19-18-34.4-40.1-34.4H196.7z" fill="#242424" p-id="1961"></path>
<path d="M328 453.9c-9.7 0-19.4-3.8-26.8-11.3l-55.4-56.8c-14.4-14.8-14.1-38.4 0.6-52.9 14.8-14.4 38.4-14.1 52.9 0.6l55.4 56.8c14.4 14.8 14.1 38.4-0.6 52.9-7.2 7.2-16.7 10.7-26.1 10.7z" fill="#FFCF41" p-id="1962"></path>
<path d="M328 453.9c-9.6 0-19.1-3.6-26.4-10.9-14.6-14.6-14.7-38.3-0.1-52.9l115-115.3c14.6-14.6 38.3-14.6 52.9-0.1 14.6 14.6 14.7 38.3 0.1 52.9l-115 115.3c-7.3 7.3-16.9 11-26.5 11z" fill="#FFCF41" p-id="1963"></path>
<path d="M751.4 396.2h-162c-20.6 0-37.4-16.7-37.4-37.4s16.7-37.4 37.4-37.4h162c20.6 0 37.4 16.7 37.4 37.4s-16.7 37.4-37.4 37.4z" fill="#232426" p-id="1964"></path>
<path d="M751.4 679.2h-162c-20.6 0-37.4-16.7-37.4-37.4s16.7-37.4 37.4-37.4h162c20.6 0 37.4 16.7 37.4 37.4s-16.7 37.4-37.4 37.4z" fill="#FFCF41" p-id="1965"></path>
<path d="M357.8 760.2c-65.3 0-118.4-53.1-118.4-118.4s53.1-118.4 118.4-118.4 118.4 53.1 118.4 118.4-53.1 118.4-118.4 118.4z m0-162c-24.1 0-43.6 19.6-43.6 43.6s19.6 43.6 43.6 43.6c24.1 0 43.6-19.6 43.6-43.6s-19.5-43.6-43.6-43.6z" fill="#242424" p-id="1966"></path>
</svg>